<svg width="104" height="114" viewBox="0 0 104 114" fill="none" xmlns="http://www.w3.org/2000/svg">
<path class="hexagon" d="M71.4697 0.445374H32.2946C30.0392 0.456192 27.8265 1.06022 25.8794 2.19661C23.9324 3.33299 22.3197 4.96158 21.204 6.91831L1.71315 40.423C0.590184 42.4031 -3.05176e-05 44.6398 -3.05176e-05 46.9152C-3.05176e-05 49.1907 0.590184 51.4273 1.71315 53.4075L21.204 87.2599C22.3571 89.1691 23.9831 90.7496 25.9256 91.8495C27.868 92.9494 30.0614 93.5314 32.2946 93.5397H71.4697C73.7028 93.5314 75.8962 92.9494 77.8387 91.8495C79.7811 90.7496 81.4072 89.1691 82.5603 87.2599L102.051 53.4848C103.174 51.5046 103.764 49.268 103.764 46.9925C103.764 44.7171 103.174 42.4804 102.051 40.5003L82.5603 6.91831C81.4461 4.96027 79.8337 3.3306 77.8864 2.19401C75.939 1.05743 73.7255 0.454227 71.4697 0.445374V0.445374Z" fill="url(#paint0_linear)"/>
<path d="M71.8567 17.7967L85.6183 25.6222C86.1135 25.9267 86.5283 26.3453 86.828 26.8429C87.1277 27.3404 87.3036 27.9025 87.3409 28.4819V65.5418C87.3036 66.1212 87.1277 66.6832 86.828 67.1808C86.5283 67.6784 86.1135 68.0969 85.6183 68.4015L53.5078 86.7962C53.0135 87.0811 52.4528 87.2311 51.882 87.2311C51.3112 87.2311 50.7505 87.0811 50.2561 86.7962L18.1457 68.3628C17.6556 68.062 17.2439 67.6495 16.9445 67.1591C16.645 66.6688 16.4663 66.1145 16.423 65.5418V28.4819C16.4603 27.9025 16.6362 27.3404 16.936 26.8429C17.2357 26.3453 17.6505 25.9267 18.1457 25.6222L50.2561 7.11153C50.7505 6.82663 51.3112 6.67664 51.882 6.67664C52.4528 6.67664 53.0135 6.82663 53.5078 7.11153L61.25 11.6909L61.6371 12.0773V30.0083H61.25L53.5078 25.6222C53.0135 25.3373 52.4528 25.1873 51.882 25.1873C51.3112 25.1873 50.7505 25.3373 50.2561 25.6222L34.2106 34.7809C33.7387 35.0941 33.352 35.5193 33.0851 36.0184C32.8182 36.5175 32.6796 37.0749 32.6815 37.6406V55.8807C32.6778 56.4468 32.8158 57.0048 33.0828 57.5041C33.3498 58.0035 33.7374 58.4284 34.2106 58.7404L50.2561 67.8991C50.7505 68.184 51.3112 68.334 51.882 68.334C52.4528 68.334 53.0135 68.184 53.5078 67.8991L69.5727 58.7404C70.0434 58.4259 70.4292 58.0005 70.6959 57.5017C70.9626 57.0029 71.102 56.4461 71.1018 55.8807V18.1831C71.1018 17.7967 71.4696 17.6035 71.8567 17.7967Z" fill="white"/>
<path d="M59.6822 41.6596L52.811 37.6406C52.5562 37.4703 52.2564 37.3794 51.9497 37.3794C51.643 37.3794 51.3433 37.4703 51.0884 37.6406L44.1979 41.6596C43.9501 41.7775 43.7447 41.9687 43.6096 42.2072C43.4745 42.4458 43.4164 42.7201 43.4431 42.9929V50.9922C43.4164 51.265 43.4745 51.5393 43.6096 51.7778C43.7447 52.0164 43.9501 52.2076 44.1979 52.3255L51.0884 56.5377C51.6464 56.7306 52.2531 56.7306 52.811 56.5377L59.6822 52.3255C59.9336 52.2106 60.1431 52.0206 60.2818 51.7818C60.4205 51.543 60.4815 51.2671 60.4564 50.9922V42.9929C60.4815 42.718 60.4205 42.4421 60.2818 42.2033C60.1431 41.9644 59.9336 41.7745 59.6822 41.6596Z" fill="white"/>
<path d="M9.38694 101.786C10.9975 101.676 12.5912 102.171 13.8547 103.174C14.9326 104.094 15.4168 105.513 15.4168 107.47C15.4426 108.377 15.3374 109.283 15.1044 110.16C14.8738 110.862 14.4987 111.507 14.0031 112.055C13.4546 112.592 12.8002 113.009 12.0816 113.279C11.2132 113.566 10.3011 113.698 9.38694 113.669H5.07541V101.786H9.38694ZM10.6054 112.328C10.9634 112.266 11.3106 112.153 11.6364 111.993L12.066 111.774C12.4027 111.555 12.69 111.268 12.9096 110.932C13.1912 110.535 13.4001 110.092 13.5266 109.622C13.6979 109.024 13.777 108.404 13.761 107.782C13.7693 107.135 13.6905 106.49 13.5266 105.864C13.393 105.336 13.1597 104.839 12.8393 104.398C12.475 104.013 12.0402 103.7 11.5583 103.478C10.9094 103.283 10.2363 103.181 9.55878 103.174H6.77034V112.39H9.85559C10.1068 112.389 10.3575 112.368 10.6054 112.328V112.328Z" fill="#F39200"/>
<path d="M24.4695 101.786V113.7H22.8527V101.786H24.4695Z" fill="#F39200"/>
<path d="M40.1691 113.615C39.4499 113.851 38.6998 113.979 37.943 113.997C37.0881 114.027 36.2392 113.842 35.4748 113.459C34.7492 113.162 34.0945 112.715 33.5534 112.149C33.009 111.619 32.6108 110.959 32.3974 110.231C32.1152 109.522 31.9848 108.762 32.0146 108.001C31.9988 107.146 32.1013 106.293 32.3193 105.466C32.5938 104.745 32.9842 104.074 33.4753 103.478C33.9996 102.885 34.6267 102.391 35.3264 102.02C36.1545 101.67 37.0438 101.487 37.943 101.482C38.5908 101.478 39.2365 101.557 39.8644 101.716C40.4386 101.851 40.9854 102.083 41.4813 102.402C41.9647 102.731 42.3809 103.149 42.7076 103.634C43.0353 104.207 43.2699 104.828 43.4027 105.474H41.7078C41.6506 105.06 41.4923 104.667 41.2469 104.328C41.0298 103.988 40.7422 103.698 40.4034 103.478C40.082 103.248 39.7141 103.091 39.3255 103.018C38.876 102.893 38.4092 102.84 37.943 102.862C37.2795 102.854 36.6219 102.987 36.0137 103.252C35.4891 103.55 35.0211 103.938 34.6312 104.398C34.3101 104.905 34.0481 105.446 33.8502 106.012C33.6932 106.642 33.6171 107.289 33.6237 107.938C33.6071 108.54 33.7107 109.139 33.9283 109.7C34.0806 110.282 34.3728 110.817 34.7797 111.26C35.1215 111.718 35.569 112.087 36.084 112.336C36.6677 112.591 37.2982 112.721 37.9352 112.718C38.5357 112.707 39.131 112.604 39.7004 112.414C40.1806 112.206 40.6238 111.922 41.0126 111.572C41.3158 111.19 41.5776 110.777 41.7937 110.34C41.9518 109.835 42.0309 109.309 42.028 108.78H38.0211V107.47H43.4886V113.708H42.4107L42.0202 112.235C41.5121 112.825 40.8801 113.296 40.1691 113.615V113.615Z" fill="#F39200"/>
<path d="M52.9553 101.786V113.7H51.3384V101.786H52.9553Z" fill="#F39200"/>
<path d="M59.7194 103.096V101.786H69.7952V103.096H65.5696V113.7H63.9528V103.096H59.7194Z" fill="#F39200"/>
<path d="M80.1132 101.786L85.034 113.7H83.1907L81.8003 110.16H76.4968L75.1065 113.7H73.3413L78.2621 101.786H80.1132ZM81.2614 108.804L79.1837 103.275H79.1135L77.0358 108.804H81.2614Z" fill="#F39200"/>
<path d="M93.1962 101.786V112.39H99.89V113.7H91.5013V101.786H93.1962Z" fill="#F39200"/>
<defs>
<linearGradient id="paint0_linear" x1="0.00987951" y1="46.9925" x2="103.774" y2="46.9925" gradientUnits="userSpaceOnUse">
<stop stop-color="#FBBA00"/>
<stop offset="1" stop-color="#F39200"/>
</linearGradient>
</defs>
</svg>
